<?xml version="1.0" encoding="utf-8"?>
<!-- Generator: Adobe Illustrator 16.0.4, SVG Export Plug-In . SVG Version: 6.00 Build 0)  -->
<!DOCTYPE svg PUBLIC "-//W3C//DTD SVG 1.1//EN" "http://www.w3.org/Graphics/SVG/1.1/DTD/svg11.dtd">
<svg version="1.1" id="Layer_1" xmlns="http://www.w3.org/2000/svg" xmlns:xlink="http://www.w3.org/1999/xlink" x="0px" y="0px"
	 width="313.391px" height="100px" viewBox="0 0 313.391 100" enable-background="new 0 0 313.391 100" xml:space="preserve">
<g id="THE">
	<rect x="124.172" fill="#E71C2D" width="97.357" height="15.874"/>
	<rect x="124.172" y="17.79" fill="#B41989" width="82.382" height="15.873"/>
	<rect x="124.172" y="35.579" fill="#005DA9" width="67.268" height="15.874"/>
	<g>
		<path fill="#FFFFFF" d="M127.821,13.876l-2.028-11.877h1.21l1.174,7.063c0.143,0.905,0.267,1.824,0.303,2.778
			c0.071-0.954,0.214-1.89,0.409-2.811l1.548-7.031h1.05l1.55,7.031c0.195,0.921,0.338,1.857,0.408,2.811
			c0.035-1.101,0.179-2.021,0.303-2.778l1.175-7.063h1.21l-2.029,11.877h-1.174l-1.763-8.527c-0.106-0.475-0.178-1.018-0.213-1.61
			c-0.089,0.855-0.179,1.496-0.269,1.923l-1.689,8.214H127.821z"/>
		<path fill="#FFFFFF" d="M137.376,7.929c0-4.091,1.229-6.162,3.54-6.162c2.313,0,3.56,2.071,3.56,6.162
			c0,4.091-1.246,6.178-3.56,6.178C138.604,14.106,137.376,12.02,137.376,7.929z M138.764,7.651c0,3.596,0.568,5.338,2.152,5.338
			c1.549,0,2.152-1.659,2.152-5.061c0-3.4-0.623-5.06-2.152-5.06C139.404,2.869,138.764,4.43,138.764,7.651z"/>
		<path fill="#FFFFFF" d="M146.539,1.999h2.349c2.776,0,4.146,1.018,4.146,3.122c0,1.445-0.713,2.447-2.028,2.842l2.099,5.914
			h-1.423l-1.938-5.651c-0.445,0.017-0.907,0.033-1.371,0.033c-0.179,0-0.337,0-0.517,0v5.618h-1.315L146.539,1.999L146.539,1.999z
			 M148.977,7.19c1.761,0,2.652-0.69,2.652-2.07c0-1.396-0.872-2.07-2.652-2.07h-1.121v4.14H148.977z"/>
		<path fill="#FFFFFF" d="M155.115,1.999h1.336v10.744h4.039v1.134h-5.375V1.999z"/>
		<path fill="#FFFFFF" d="M162.09,1.999h2.385c3.044,0,4.271,1.839,4.271,5.915c0,4.106-1.21,5.962-4.271,5.962h-2.385V1.999z
			 M163.425,12.76c0.25,0.016,0.499,0.033,0.712,0.033c2.562,0,3.291-1.414,3.291-4.913c0-3.465-0.729-4.863-3.272-4.863
			c-0.23,0-0.479,0.016-0.729,0.034L163.425,12.76L163.425,12.76z"/>
	</g>
	<g>
		<path fill="#FFFFFF" d="M126.576,19.789h1.316v7.606c0,2.316,0.16,3.417,1.922,3.417c1.727,0,1.904-1.117,1.904-3.417v-7.606
			h1.317v7.721c0,1.56-0.055,2.645-0.677,3.384c-0.534,0.625-1.441,1.002-2.545,1.002c-1.121,0-2.029-0.377-2.562-1.002
			c-0.642-0.74-0.675-1.824-0.675-3.384L126.576,19.789L126.576,19.789z"/>
		<path fill="#FFFFFF" d="M136.681,20.708v10.958h-1.157V19.789h1.923l2.651,6.735c0.375,0.97,0.73,1.956,1.05,2.958
			c-0.105-1.02-0.105-1.889-0.105-2.596V19.79h1.157v11.877h-1.301l-3.238-8.214C137.27,22.467,136.949,21.545,136.681,20.708z"/>
		<path fill="#FFFFFF" d="M144.741,19.789h1.316v11.877h-1.316V19.789z"/>
		<path fill="#FFFFFF" d="M147.534,19.789h1.316l1.922,8.099c0.107,0.427,0.195,1.052,0.32,1.857
			c0.107-0.576,0.231-1.216,0.391-1.905l1.905-8.05h1.264l-2.937,11.877h-1.245L147.534,19.789z"/>
		<path fill="#FFFFFF" d="M156.076,19.789h5.782v1.1h-4.466v4.091h3.273v1.085h-3.273v4.501h4.625v1.1h-5.941V19.789z"/>
		<path fill="#FFFFFF" d="M163.674,19.789h2.348c2.776,0,4.147,1.018,4.147,3.121c0,1.446-0.712,2.448-2.029,2.842l2.101,5.914
			h-1.424l-1.938-5.652c-0.446,0.018-0.908,0.033-1.371,0.033c-0.179,0-0.338,0-0.52,0v5.619h-1.313L163.674,19.789L163.674,19.789z
			 M166.11,24.979c1.764,0,2.652-0.69,2.652-2.07c0-1.397-0.872-2.07-2.652-2.07h-1.122v4.14H166.11z"/>
		<path fill="#FFFFFF" d="M172.907,28.511c0.091,1.544,0.729,2.284,2.047,2.284c1.121,0,1.887-0.772,1.887-1.972
			c0-1.281-0.926-2.037-2.491-3.104c-1.584-1.084-2.492-1.873-2.492-3.483c0-1.512,1.192-2.678,2.85-2.678
			c1.901,0,3.076,1.166,3.147,3.221h-1.228c-0.106-1.461-0.729-2.202-1.868-2.202c-1.05,0-1.726,0.641-1.726,1.659
			c0,0.51,0.229,1.019,0.621,1.397c0.678,0.657,1.565,1.167,2.404,1.791c1.368,1.018,2.026,1.972,2.026,3.352
			c0,1.905-1.281,3.121-3.168,3.121c-2.027,0-3.222-1.216-3.255-3.385L172.907,28.511L172.907,28.511z"/>
		<path fill="#FFFFFF" d="M180.132,19.789h1.315v11.877h-1.315V19.789z"/>
		<path fill="#FFFFFF" d="M185.577,20.806h-2.563v-1.018h6.46v1.018h-2.599v10.859h-1.298V20.806z"/>
		<path fill="#FFFFFF" d="M192.497,26.556l-2.883-6.768h1.37l2.207,5.404l2.152-5.404h1.353l-2.847,6.768v5.109h-1.354
			L192.497,26.556L192.497,26.556z"/>
	</g>
	<g>
		<path fill="#FFFFFF" d="M126.61,37.585h2.35c2.775,0,4.146,1.02,4.146,3.122c0,1.446-0.712,2.448-2.029,2.842l2.101,5.914h-1.423
			l-1.94-5.65c-0.445,0.016-0.908,0.032-1.371,0.032c-0.177,0-0.337,0-0.516,0v5.619h-1.317V37.585z M129.049,42.776
			c1.762,0,2.652-0.69,2.652-2.07c0-1.396-0.872-2.07-2.652-2.07h-1.122v4.14H129.049z"/>
		<path fill="#FFFFFF" d="M136.984,37.585h1.815l2.812,11.877h-1.389l-0.748-3.499h-3.238l-0.748,3.499h-1.299L136.984,37.585z
			 M139.209,44.847l-1.354-6.21l-1.335,6.21H139.209z"/>
		<path fill="#FFFFFF" d="M144.297,38.506v10.957h-1.157V37.585h1.923l2.65,6.737c0.374,0.968,0.729,1.954,1.05,2.957
			c-0.105-1.02-0.105-1.889-0.105-2.596v-7.097h1.155v11.877h-1.299l-3.238-8.214C144.885,40.262,144.562,39.343,144.297,38.506z"/>
		<path fill="#FFFFFF" d="M152.303,37.585h1.335v6.341l3.809-6.341h1.316l-2.562,4.188l2.973,7.689h-1.424l-2.402-6.424
			l-1.725,2.859v3.564h-1.318V37.585H152.303z"/>
		<path fill="#FFFFFF" d="M160.437,37.585h1.314v11.877h-1.314V37.585z"/>
		<path fill="#FFFFFF" d="M165.471,38.506v10.957h-1.156V37.585h1.921l2.651,6.737c0.375,0.968,0.73,1.954,1.051,2.957
			c-0.106-1.02-0.106-1.889-0.106-2.596v-7.097h1.156v11.877h-1.3l-3.238-8.214C166.058,40.262,165.736,39.343,165.471,38.506z"/>
		<path fill="#FFFFFF" d="M178.977,48.773c-0.588,0.64-1.281,0.92-2.243,0.92c-2.438,0-3.665-2.004-3.665-6.013
			c0-4.271,1.139-6.34,3.686-6.34c1.938,0,3.184,1.363,3.184,3.729h-1.281c-0.088-1.757-0.781-2.662-1.922-2.662
			c-1.726,0-2.275,1.692-2.275,5.241c0,3.335,0.675,4.961,2.438,4.961c1.14,0,1.902-0.805,1.902-2.25v-1.397h-1.867v-1.067h3.113
			v5.568h-0.924L178.977,48.773z"/>
		<path fill="#FFFFFF" d="M182.926,46.309c0.088,1.543,0.729,2.283,2.046,2.283c1.122,0,1.886-0.772,1.886-1.971
			c0-1.281-0.924-2.037-2.49-3.104c-1.583-1.084-2.491-1.873-2.491-3.483c0-1.511,1.191-2.678,2.849-2.678
			c1.902,0,3.078,1.167,3.149,3.221h-1.229c-0.106-1.463-0.729-2.203-1.87-2.203c-1.05,0-1.725,0.641-1.725,1.66
			c0,0.509,0.229,1.018,0.621,1.396c0.678,0.658,1.566,1.167,2.404,1.792c1.368,1.019,2.028,1.972,2.028,3.351
			c0,1.905-1.283,3.122-3.168,3.122c-2.028,0-3.223-1.217-3.258-3.384h1.247V46.309z"/>
	</g>
	<g>
		<path fill="#E71C2D" d="M28.48,100H10.477V13.559H0V0h39.342v13.559H28.48V100z"/>
	</g>
	<g>
		<path fill="#B41989" d="M60.209,51.418V100H43.318L43.199,0h17.01v37.85h4.449V0h16.887v100H64.658V51.418H60.209z"/>
	</g>
	<g>
		<path fill="#005DA9" d="M119.893,13.559h-16.024v25.645h13.438v12.215h-13.438v33.535h16.024V100h-33.53V0h33.529L119.893,13.559
			L119.893,13.559z"/>
	</g>
	<g>
		<path fill="#FFFFFF" d="M15.445,94.717v2.041h-0.879v-5.145h0.879v2.068h9.367v1.034L15.445,94.717L15.445,94.717z"/>
		<path fill="#FFFFFF" d="M14.566,90.18v-1.049h10.246v1.049H14.566z"/>
		<path fill="#FFFFFF" d="M14.566,86.902v-1.629l5.328-1.234c0.922-0.211,1.957-0.41,3.119-0.566
			c-1.021-0.141-2.055-0.34-3.104-0.58l-5.345-1.248v-1.643h10.246v0.934h-9.522l9.522,2.211v0.652l-9.522,2.182h9.522v0.922H14.566
			L14.566,86.902z"/>
		<path fill="#FFFFFF" d="M14.566,77.799v-4.605h0.949v3.558h3.529v-2.606h0.936v2.606h3.883v-3.685h0.949v4.732H14.566z"/>
		<path fill="#FFFFFF" d="M22.092,70.951c1.332-0.07,1.971-0.58,1.971-1.629c0-0.893-0.666-1.502-1.701-1.502
			c-1.104,0-1.758,0.736-2.678,1.982c-0.936,1.262-1.617,1.983-3.006,1.983c-1.303,0-2.309-0.949-2.309-2.269
			c0-1.516,1.006-2.451,2.776-2.508v0.979c-1.262,0.084-1.897,0.58-1.897,1.488c0,0.836,0.553,1.373,1.43,1.373
			c0.439,0,0.879-0.184,1.205-0.496c0.566-0.537,1.006-1.246,1.545-1.912c0.879-1.092,1.701-1.614,2.891-1.614
			c1.646,0,2.693,1.021,2.693,2.521c0,1.615-1.049,2.566-2.92,2.594V70.951z"/>
	</g>
	<g>
		<path fill="#FFFFFF" d="M46.686,95.975v-1.049h4.394v-2.975h-4.394v-1.049h10.246v1.049h-4.875v2.975h4.875v1.049H46.686z"/>
		<path fill="#FFFFFF" d="M46.686,88.674v-1.049h10.246v1.049H46.686z"/>
		<path fill="#FFFFFF" d="M56.336,81.02c0.553,0.467,0.795,1.021,0.795,1.785c0,1.941-1.73,2.918-5.188,2.918
			c-3.684,0-5.471-0.906-5.471-2.934c0-1.543,1.178-2.535,3.217-2.535v1.02c-1.516,0.07-2.295,0.623-2.295,1.531
			c0,1.375,1.459,1.812,4.521,1.812c2.875,0,4.278-0.537,4.278-1.941c0-0.906-0.694-1.516-1.94-1.516h-1.205v1.488h-0.922v-2.48
			h4.805v0.736L56.336,81.02z"/>
		<path fill="#FFFFFF" d="M46.686,78.238v-1.049h4.394v-2.978h-4.394v-1.049h10.246v1.049h-4.875v2.978h4.875v1.049H46.686z"/>
		<path fill="#FFFFFF" d="M46.686,70.965v-4.605h0.949v3.558h3.529v-2.606H52.1v2.606h3.883v-3.685h0.949v4.732H46.686z"/>
		<path fill="#FFFFFF" d="M46.686,64.699v-1.871c0-2.211,0.879-3.301,2.693-3.301c1.246,0,2.111,0.566,2.451,1.615l5.102-1.672
			v1.133l-4.875,1.545c0.014,0.354,0.029,0.723,0.029,1.092c0,0.141,0,0.268,0,0.41h4.846v1.049H46.686z M51.164,62.758
			c0-1.402-0.597-2.111-1.785-2.111c-1.205,0-1.785,0.693-1.785,2.111v0.893h3.57V62.758z"/>
	</g>
	<g>
		<path fill="#FFFFFF" d="M89.973,95.975V91.37h0.949v3.558h3.529V92.32h0.936v2.607h3.883v-3.685h0.949v4.731H89.973z"/>
		<path fill="#FFFFFF" d="M89.973,89.652v-1.9c0-2.422,1.588-3.4,5.103-3.4c3.543,0,5.145,0.963,5.145,3.4v1.9H89.973z
			 M99.256,88.588c0.014-0.197,0.027-0.396,0.027-0.566c0-2.041-1.22-2.621-4.236-2.621c-2.99,0-4.195,0.58-4.195,2.607
			c0,0.184,0.015,0.383,0.029,0.58H99.256z"/>
		<path fill="#FFFFFF" d="M89.973,82.506v-1.049h6.562c1.998,0,2.946-0.127,2.946-1.529c0-1.375-0.965-1.518-2.946-1.518h-6.562
			v-1.047h6.66c1.348,0,2.283,0.041,2.92,0.537c0.539,0.426,0.865,1.147,0.865,2.027c0,0.893-0.326,1.614-0.865,2.041
			c-0.637,0.51-1.572,0.536-2.92,0.536L89.973,82.506L89.973,82.506z"/>
		<path fill="#FFFFFF" d="M97.088,69.947c2.152,0,3.33,0.992,3.33,2.68c0,1.912-1.73,2.891-5.188,2.891
			c-3.684,0-5.471-0.906-5.471-2.934c0-1.545,1.178-2.537,3.217-2.537v1.021c-1.516,0.07-2.295,0.623-2.295,1.529
			c0,1.348,1.445,1.827,4.449,1.827c2.947,0,4.352-0.522,4.352-1.997c0-0.921-0.852-1.529-2.41-1.529c-0.069,0-0.141,0-0.211,0
			v-0.951C96.932,69.947,97.016,69.947,97.088,69.947z"/>
		<path fill="#FFFFFF" d="M89.973,66.756v-1.445l10.246-2.238v1.105l-3.018,0.596v2.578l3.018,0.596v1.035L89.973,66.756z
			 M96.236,64.986l-5.354,1.076l5.354,1.062V64.986z"/>
		<path fill="#FFFFFF" d="M90.852,60.391v2.041h-0.879v-5.145h0.879v2.07h9.367v1.033H90.852L90.852,60.391z"/>
		<path fill="#FFFFFF" d="M89.973,55.854v-1.049h10.246v1.049H89.973z"/>
		<path fill="#FFFFFF" d="M95.09,52.902c-3.529,0-5.314-0.978-5.314-2.82c0-1.842,1.785-2.834,5.314-2.834
			c3.527,0,5.328,0.992,5.328,2.834C100.418,51.926,98.617,52.902,95.09,52.902z M94.848,51.797c3.104,0,4.605-0.453,4.605-1.715
			c0-1.232-1.433-1.713-4.363-1.713c-2.935,0-4.365,0.496-4.365,1.713C90.725,51.287,92.07,51.797,94.848,51.797z"/>
		<path fill="#FFFFFF" d="M90.768,44.451h9.451v0.922H89.973v-1.531l5.812-2.111c0.836-0.297,1.688-0.58,2.551-0.836
			c-0.879,0.084-1.629,0.084-2.238,0.084h-6.123v-0.92h10.246v1.035l-7.086,2.578C92.283,43.984,91.49,44.238,90.768,44.451z"/>
	</g>
</g>
</svg>
